<svg width="41" height="41" viewBox="0 0 41 41" fill="none" xmlns="http://www.w3.org/2000/svg">
<g clip-path="url(#clip0)">
<path d="M33.2992 11.8087C32.5322 11.0417 32.1053 10.0218 32.1053 8.93063C32.1053 5.98143 29.7016 3.5778 26.7524 3.5778C25.6692 3.5778 24.6413 3.15083 23.8744 2.38388C21.787 0.296518 18.3951 0.296518 16.3077 2.38388C15.5407 3.15083 14.5208 3.5778 13.4297 3.5778C10.4805 3.5778 8.07682 5.98143 8.07682 8.93063C8.07682 10.0138 7.65776 11.0417 6.88291 11.8087C5.87085 12.8207 5.31738 14.1649 5.31738 15.596C5.31738 17.0271 5.87085 18.3712 6.88291 19.3833C7.64986 20.1502 8.07682 21.1702 8.07682 22.2613C8.07682 24.6887 9.69769 26.7365 11.9116 27.3928L8.80423 38.9998L13.4929 36.3906L16.2444 41.0002L19.1146 30.2866C19.4387 30.342 19.7629 30.3736 20.0871 30.3736C20.4113 30.3736 20.7354 30.342 21.0596 30.2866L23.9376 40.9923L26.6892 36.3827L31.3778 38.9919L28.2705 27.3849C30.4844 26.7286 32.1053 24.6808 32.1053 22.2534C32.1053 21.1702 32.5322 20.1423 33.2992 19.3754C35.3865 17.2959 35.3865 13.896 33.2992 11.8087ZM15.8017 37.7268L13.9673 34.659L10.8442 36.3985L13.2004 27.6062C13.2873 27.6141 13.3664 27.6141 13.4455 27.6141C14.5287 27.6141 15.5566 28.0411 16.3235 28.8081C16.45 28.9346 16.5765 29.0453 16.7109 29.156C16.7505 29.1876 16.79 29.2192 16.8295 29.2508C16.9244 29.322 17.0193 29.3932 17.1221 29.4643C17.1774 29.5038 17.2407 29.5355 17.296 29.575C17.383 29.6224 17.4621 29.6778 17.549 29.7252C17.6202 29.7648 17.6993 29.8043 17.7704 29.8359C17.8021 29.8517 17.8495 29.8755 17.8969 29.8913L15.8017 37.7268ZM29.3616 36.3985L26.2385 34.659L24.4041 37.7268L22.3089 29.8913C22.3563 29.8676 22.3958 29.8438 22.4433 29.828C22.5223 29.7885 22.5935 29.7569 22.6726 29.7094C22.7595 29.662 22.8386 29.6145 22.9177 29.5671C22.9809 29.5276 23.0363 29.4959 23.0995 29.4564C23.1944 29.3932 23.2814 29.322 23.3763 29.2508C23.4237 29.2192 23.4712 29.1876 23.5107 29.148C23.6451 29.0373 23.7716 28.9267 23.8981 28.8001C24.6651 28.0332 25.685 27.6062 26.7761 27.6062C26.8394 27.6141 26.9185 27.6062 27.0054 27.6062L29.3616 36.3985ZM32.3899 18.474C31.3778 19.4861 30.8244 20.8302 30.8244 22.2613C30.8244 24.2222 29.4328 25.8589 27.5826 26.2463L27.3771 26.2779C27.2664 26.2937 27.1715 26.3095 27.0687 26.3174C26.9659 26.3254 26.8552 26.3333 26.7524 26.3333C26.2148 26.3333 25.6929 26.4123 25.1948 26.5626C24.3646 26.8156 23.5977 27.2663 22.973 27.8988C22.8623 28.0095 22.7516 28.1044 22.633 28.1992C22.5935 28.2309 22.554 28.2546 22.5144 28.2862C22.4354 28.3495 22.3484 28.4048 22.2614 28.4602C22.2219 28.4839 22.1745 28.5155 22.127 28.5392C22.0321 28.5946 21.9373 28.642 21.8424 28.6895C21.8028 28.7053 21.7712 28.7211 21.7317 28.7448C21.6131 28.8002 21.4866 28.8476 21.368 28.8871C21.3442 28.895 21.3126 28.9108 21.2889 28.9187L21.2415 28.9346C20.4982 29.148 19.6997 29.148 18.9564 28.9346L18.8932 28.9187C18.8695 28.9108 18.8536 28.9029 18.8299 28.895C18.7034 28.8555 18.5769 28.8001 18.4504 28.7527C18.4188 28.7369 18.3792 28.7211 18.3476 28.7053C18.2448 28.6578 18.1499 28.6025 18.0551 28.5471C18.0155 28.5234 17.976 28.4997 17.9365 28.476C17.8416 28.4206 17.7546 28.3574 17.6676 28.2941C17.636 28.2704 17.5965 28.2467 17.5649 28.2151C17.4462 28.1202 17.3356 28.0174 17.2249 27.9146C16.5923 27.2821 15.8333 26.8314 15.0031 26.5784C14.505 26.4281 13.9831 26.3491 13.4455 26.3491C13.3348 26.3491 13.232 26.3412 13.1292 26.3333C13.0343 26.3254 12.9315 26.3095 12.8208 26.2937L12.6153 26.2621C10.7651 25.8747 9.37352 24.238 9.37352 22.2771C9.37352 20.846 8.82005 19.5019 7.80799 18.4898C7.04104 17.7229 6.61408 16.7029 6.61408 15.6118C6.61408 14.5286 7.04104 13.5007 7.80799 12.7337C8.82005 11.7217 9.37352 10.3776 9.37352 8.94644C9.37352 6.70094 11.2 4.8824 13.4376 4.8824C14.8687 4.8824 16.2128 4.32893 17.2249 3.31687C18.0155 2.52621 19.0592 2.13087 20.1029 2.13087C21.1466 2.13087 22.1903 2.52621 22.9809 3.31687C23.993 4.32893 25.3371 4.8824 26.7682 4.8824C29.0137 4.8824 30.8323 6.70885 30.8323 8.94644C30.8323 10.3776 31.3858 11.7217 32.3978 12.7337C33.9791 14.3072 33.9791 16.8848 32.3899 18.474Z" fill="white"/>
<path d="M20.0953 5.96484C14.782 5.96484 10.457 10.2898 10.457 15.6031C10.457 20.9164 14.782 25.2335 20.0953 25.2335C25.4086 25.2335 29.7336 20.9085 29.7336 15.5952C29.7336 10.2819 25.4086 5.96484 20.0953 5.96484ZM20.0953 23.9447C15.4936 23.9447 11.7458 20.1969 11.7458 15.5952C11.7458 10.9935 15.4936 7.24573 20.0953 7.24573C24.697 7.24573 28.4448 10.9935 28.4448 15.5952C28.4448 20.1969 24.697 23.9447 20.0953 23.9447Z" fill="white"/>
<path d="M20.0948 9.02539L18.6637 13.4373H14.0225L17.7781 16.1651L16.347 20.5771L20.1027 17.8493L23.8584 20.5771L22.4194 16.1651L26.175 13.4373H21.5338L20.0948 9.02539ZM21.4073 17.2167L20.0948 16.26L18.7823 17.2167L19.2804 15.6749L17.9679 14.7182H19.5888L20.0869 13.1764L20.585 14.7182H22.2059L20.8934 15.6749L21.4073 17.2167Z" fill="white"/>
</g>
<defs>
<clipPath id="clip0">
<rect width="40.1818" height="40.1818" fill="white" transform="translate(0 0.818359)"/>
</clipPath>
</defs>
</svg>
