<svg width="15" height="15" viewBox="0 0 15 15" fill="none" xmlns="http://www.w3.org/2000/svg">
<g clip-path="url(#clip0)">
<path d="M1.69373 9.88747V11.5625C1.69373 12.5125 2.46872 13.2875 3.41869 13.2875H5.09377L6.2812 14.4749C6.60622 14.8 7.04372 14.9812 7.5 14.9812C7.95628 14.9812 8.39378 14.8 8.7188 14.4749L9.90623 13.2875H11.5813C12.5313 13.2875 13.3063 12.5125 13.3063 11.5625V9.88747L14.4937 8.70003C14.8187 8.37502 15 7.93751 15 7.48123C15 7.02496 14.8187 6.58745 14.4937 6.26255L13.3063 5.075V3.40004C13.3063 2.44995 12.5313 1.67496 11.5813 1.67496H9.90623L8.7188 0.487518C8.06877 -0.162506 6.93123 -0.162506 6.2812 0.487518L5.09377 1.67496H3.41869C2.46872 1.67496 1.69373 2.44995 1.69373 3.40004V5.075L0.506287 6.26255C0.181274 6.58745 0 7.02496 0 7.48123C0 7.93751 0.181274 8.37502 0.506287 8.70003L1.69373 9.88747ZM7.5 3.73123C7.75623 3.73123 7.96875 3.94375 7.96875 4.19998V10.7625C7.96875 11.0187 7.75623 11.2312 7.5 11.2312C5.32505 11.2312 3.75 9.6563 3.75 7.48123C3.75 5.30628 5.32505 3.73123 7.5 3.73123Z" fill="#18191F"/>
</g>
<defs>
<clipPath id="clip0">
<rect width="15" height="15" fill="white"/>
</clipPath>
</defs>
</svg>
