<svg width="39" height="39" viewBox="0 0 39 39" fill="none" xmlns="http://www.w3.org/2000/svg">
<path d="M26.991 17.241L19.8571 24.375H17.0625V23.1562H17.0467C18.2215 22.2769 19.0734 20.9887 19.3769 19.5H19.5C20.8443 19.5 21.9375 18.4068 21.9375 17.0625C21.9375 16.4495 21.7029 15.8955 21.3281 15.4672V13.4062C21.3281 9.03825 17.7743 5.48438 13.4062 5.48438C9.03825 5.48438 5.48438 9.03825 5.48438 13.4062V15.4672C5.10961 15.8955 4.875 16.4495 4.875 17.0625C4.875 18.4068 5.96822 19.5 7.3125 19.5H7.43559C7.73906 20.9887 8.59097 22.2769 9.76584 23.1562H9.75V24.375H6.70312C3.34303 24.375 0.609375 27.1087 0.609375 30.4688V37.7812C0.609375 38.1182 0.881766 38.3906 1.21875 38.3906H25.5938C25.9307 38.3906 26.2031 38.1182 26.2031 37.7812V30.4688C26.2031 27.5632 24.1575 25.13 21.4317 24.5237L27.6742 18.2812H38.3906V17.0625H27.4219C27.2598 17.0625 27.105 17.1265 26.991 17.241ZM10.0736 25.5938L12.4453 28.4395L10.1059 29.6089L8.76708 25.5938H10.0736ZM13.2966 32.2969H13.5165L14.4915 37.1719H12.3216L13.2966 32.2969ZM13.639 31.0781H13.1735L12.5178 29.7661L13.4062 29.3219L14.2947 29.7661L13.639 31.0781ZM14.3672 28.4395L16.7389 25.5938H18.0454L16.7066 29.6095L14.3672 28.4395ZM19.5 18.2812V15.8438C20.1721 15.8438 20.7188 16.3904 20.7188 17.0625C20.7188 17.7346 20.1721 18.2812 19.5 18.2812ZM6.09375 17.0625C6.09375 16.3904 6.64036 15.8438 7.3125 15.8438V18.2812C6.64036 18.2812 6.09375 17.7346 6.09375 17.0625ZM7.3125 14.625C7.10105 14.625 6.89934 14.6603 6.70312 14.7115V13.4062C6.70312 9.71039 9.71039 6.70312 13.4062 6.70312C17.1021 6.70312 20.1094 9.71039 20.1094 13.4062V14.7115C19.9132 14.6603 19.7115 14.625 19.5 14.625C19.5 14.288 19.2276 14.0156 18.8906 14.0156C17.937 14.0156 17.0253 13.5598 16.4531 12.7963L15.7219 11.8213C15.4921 11.5154 14.9766 11.5154 14.7469 11.8213L14.0156 12.7969C13.4434 13.5598 12.5318 14.0156 11.5781 14.0156H7.92188C7.58489 14.0156 7.3125 14.288 7.3125 14.625V14.625ZM8.53125 18.2812V15.2344H11.5781C12.9133 15.2344 14.1893 14.5964 14.9906 13.5281L15.2344 13.2027L15.4781 13.5275C16.1564 14.4318 17.174 15.0284 18.2812 15.1899V18.2812C18.2812 20.9692 16.0942 23.1562 13.4062 23.1562C10.7183 23.1562 8.53125 20.9692 8.53125 18.2812ZM13.4062 24.375C14.2728 24.375 15.0967 24.1904 15.8438 23.8625V24.7638L13.4062 27.6888L10.9688 24.7638V23.8625C11.7158 24.1904 12.5397 24.375 13.4062 24.375ZM1.82812 30.4688C1.82812 27.7808 4.01517 25.5938 6.70312 25.5938H7.48312L9.17231 30.6613C9.22777 30.8283 9.35391 30.9636 9.51661 31.0312C9.59156 31.0629 9.67078 31.0781 9.75 31.0781C9.84323 31.0781 9.93708 31.0568 10.0224 31.0141L11.427 30.3115L12.1576 31.7734L11.0784 37.1719H5.48438V33.5156H4.26562V37.1719H1.82812V30.4688ZM24.9844 30.4688V37.1719H22.5469V33.5156H21.3281V37.1719H15.7341L14.6543 31.7734L15.3849 30.3115L16.7895 31.0141C16.8754 31.0568 16.9693 31.0781 17.0625 31.0781C17.1417 31.0781 17.2209 31.0629 17.2959 31.0318C17.4592 30.9642 17.5853 30.8289 17.6402 30.6619L19.3294 25.5938H20.1094C22.7973 25.5938 24.9844 27.7808 24.9844 30.4688V30.4688Z" fill="white"/>
<path d="M37.1719 14.625V6.09375C37.1719 5.75677 36.8995 5.48438 36.5625 5.48438H34.125C33.788 5.48438 33.5156 5.75677 33.5156 6.09375V14.625H32.2969V9.75C32.2969 9.41302 32.0245 9.14062 31.6875 9.14062H29.25C28.913 9.14062 28.6406 9.41302 28.6406 9.75V14.625H27.4219V11.5781C27.4219 11.2411 27.1495 10.9688 26.8125 10.9688H24.375C24.038 10.9688 23.7656 11.2411 23.7656 11.5781V14.625H22.5469V15.8438H38.3906V14.625H37.1719ZM34.7344 6.70312H35.9531V14.625H34.7344V6.70312ZM29.8594 10.3594H31.0781V14.625H29.8594V10.3594ZM24.9844 12.1875H26.2031V14.625H24.9844V12.1875Z" fill="white"/>
<path d="M28.2837 4.26562H31.6877C31.8498 4.26562 32.0045 4.20164 32.1185 4.08708L33.5158 2.68978V4.26562H34.7345V1.21875C34.7345 0.881766 34.4621 0.609375 34.1252 0.609375H31.0783V1.82812H32.6541L31.4354 3.04688H28.0314C27.8693 3.04688 27.7145 3.11086 27.6006 3.22542L23.9443 6.88167L24.806 7.74333L28.2837 4.26562Z" fill="white"/>
</svg>
