<svg width="104" height="32" viewBox="0 0 104 32" fill="none" xmlns="http://www.w3.org/2000/svg">
<path d="M31.375 26C31.2083 26 31.0583 25.9417 30.925 25.825C30.8083 25.6917 30.75 25.5417 30.75 25.375V9.125C30.75 8.94167 30.8083 8.79167 30.925 8.675C31.0583 8.55833 31.2083 8.5 31.375 8.5H34.075C34.475 8.5 34.7667 8.68333 34.95 9.05L39.35 16.925L43.75 9.05C43.9333 8.68333 44.225 8.5 44.625 8.5H47.3C47.4833 8.5 47.6333 8.55833 47.75 8.675C47.8833 8.79167 47.95 8.94167 47.95 9.125V25.375C47.95 25.5583 47.8833 25.7083 47.75 25.825C47.6333 25.9417 47.4833 26 47.3 26H44.325C44.1417 26 43.9833 25.9417 43.85 25.825C43.7333 25.7083 43.675 25.5583 43.675 25.375V16L40.875 21.225C40.6583 21.6083 40.3667 21.8 40 21.8H38.7C38.4833 21.8 38.3083 21.75 38.175 21.65C38.0417 21.55 37.925 21.4083 37.825 21.225L35 16V25.375C35 25.5417 34.9417 25.6917 34.825 25.825C34.7083 25.9417 34.5583 26 34.375 26H31.375ZM57.1781 26.25C55.1781 26.25 53.6031 25.7083 52.4531 24.625C51.3031 23.5417 50.7031 21.9667 50.6531 19.9V19.025C50.7198 17.0583 51.3281 15.525 52.4781 14.425C53.6448 13.3083 55.2031 12.75 57.1531 12.75C58.5698 12.75 59.7615 13.0417 60.7281 13.625C61.7115 14.1917 62.4448 14.975 62.9281 15.975C63.4281 16.975 63.6781 18.125 63.6781 19.425V20.025C63.6781 20.1917 63.6198 20.3417 63.5031 20.475C63.3865 20.5917 63.2365 20.65 63.0531 20.65H55.0531V20.825C55.0865 21.6083 55.2781 22.2417 55.6281 22.725C55.9781 23.2083 56.4865 23.45 57.1531 23.45C57.5698 23.45 57.9115 23.3667 58.1781 23.2C58.4448 23.0167 58.6865 22.8 58.9031 22.55C59.0531 22.3667 59.1698 22.2583 59.2531 22.225C59.3531 22.175 59.5031 22.15 59.7031 22.15H62.8031C62.9531 22.15 63.0781 22.2 63.1781 22.3C63.2948 22.3833 63.3531 22.5 63.3531 22.65C63.3531 23.0833 63.1031 23.5833 62.6031 24.15C62.1198 24.7167 61.4115 25.2083 60.4781 25.625C59.5448 26.0417 58.4448 26.25 57.1781 26.25ZM59.2781 18.175V18.125C59.2781 17.3083 59.0865 16.6667 58.7031 16.2C58.3365 15.7167 57.8198 15.475 57.1531 15.475C56.5031 15.475 55.9865 15.7167 55.6031 16.2C55.2365 16.6667 55.0531 17.3083 55.0531 18.125V18.175H59.2781ZM66.6469 26C66.4802 26 66.3302 25.9417 66.1969 25.825C66.0802 25.6917 66.0219 25.5417 66.0219 25.375V8.875C66.0219 8.69167 66.0802 8.54167 66.1969 8.425C66.3302 8.30833 66.4802 8.25 66.6469 8.25H69.5969C69.7802 8.25 69.9302 8.30833 70.0469 8.425C70.1635 8.54167 70.2219 8.69167 70.2219 8.875V25.375C70.2219 25.5583 70.1635 25.7083 70.0469 25.825C69.9302 25.9417 69.7802 26 69.5969 26H66.6469ZM79.3252 26.25C77.2585 26.25 75.6669 25.7583 74.5502 24.775C73.4335 23.7917 72.8252 22.4083 72.7252 20.625C72.7085 20.4083 72.7002 20.0333 72.7002 19.5C72.7002 18.9667 72.7085 18.5917 72.7252 18.375C72.8252 16.6083 73.4502 15.2333 74.6002 14.25C75.7502 13.25 77.3252 12.75 79.3252 12.75C81.3419 12.75 82.9252 13.25 84.0752 14.25C85.2252 15.2333 85.8502 16.6083 85.9502 18.375C85.9669 18.5917 85.9752 18.9667 85.9752 19.5C85.9752 20.0333 85.9669 20.4083 85.9502 20.625C85.8502 22.4083 85.2419 23.7917 84.1252 24.775C83.0085 25.7583 81.4085 26.25 79.3252 26.25ZM79.3252 23.2C80.0585 23.2 80.6002 22.9833 80.9502 22.55C81.3002 22.1 81.5002 21.4167 81.5502 20.5C81.5669 20.3333 81.5752 20 81.5752 19.5C81.5752 19 81.5669 18.6667 81.5502 18.5C81.5002 17.6 81.2919 16.925 80.9252 16.475C80.5752 16.025 80.0419 15.8 79.3252 15.8C77.9419 15.8 77.2085 16.7 77.1252 18.5L77.1002 19.5L77.1252 20.5C77.1585 21.4167 77.3502 22.1 77.7002 22.55C78.0669 22.9833 78.6085 23.2 79.3252 23.2ZM89.0834 26C88.9001 26 88.7501 25.9417 88.6334 25.825C88.5167 25.7083 88.4584 25.5583 88.4584 25.375V13.625C88.4584 13.4417 88.5167 13.2917 88.6334 13.175C88.7501 13.0583 88.9001 13 89.0834 13H91.9584C92.1417 13 92.2917 13.0583 92.4084 13.175C92.5417 13.2917 92.6084 13.4417 92.6084 13.625V14.575C93.0584 14.025 93.6334 13.5833 94.3334 13.25C95.0501 12.9167 95.8584 12.75 96.7584 12.75C98.2251 12.75 99.4167 13.25 100.333 14.25C101.25 15.2333 101.708 16.6167 101.708 18.4V25.375C101.708 25.5417 101.65 25.6917 101.533 25.825C101.417 25.9417 101.267 26 101.083 26H97.9334C97.7667 26 97.6167 25.9417 97.4834 25.825C97.3667 25.6917 97.3084 25.5417 97.3084 25.375V18.55C97.3084 17.7667 97.1167 17.1667 96.7334 16.75C96.3501 16.3167 95.8001 16.1 95.0834 16.1C94.3834 16.1 93.8334 16.3167 93.4334 16.75C93.0334 17.1667 92.8334 17.7667 92.8334 18.55V25.375C92.8334 25.5417 92.7751 25.6917 92.6584 25.825C92.5417 25.9417 92.3917 26 92.2084 26H89.0834Z" fill="#18191F"/>
<path d="M13.3428 25.5082C15.238 23.7551 16.5478 21.4613 17.0944 18.9381C17.1505 19.0723 17.2321 19.1945 17.3346 19.2978C17.4373 19.4011 17.5597 19.4827 17.6944 19.538C17.9794 19.6524 18.2976 19.6524 18.5827 19.538C18.7188 19.4836 18.8424 19.4019 18.9458 19.2978C19.0482 19.1945 19.1297 19.0723 19.1856 18.9381C19.243 18.7971 19.2718 18.6461 19.2704 18.4939V0H26.6426V18.4932C26.6477 19.6322 26.421 20.7604 25.9764 21.8092C25.1182 23.8498 23.4946 25.473 21.4538 26.3307C20.5998 26.692 19.6909 26.9068 18.7655 26.9662C18.7481 26.9692 18.7306 26.971 18.7129 26.9717C17.6303 27.0456 16.5436 26.9115 15.5114 26.5768C15.3707 26.5327 15.2304 26.4831 15.0927 26.4306C14.4749 26.1937 13.8874 25.8841 13.3428 25.5082Z" fill="#7854F7"/>
<path d="M4.69447e-05 18.4932V0H7.35747V18.4932C7.35618 18.6389 7.38505 18.7833 7.44223 18.9173C7.50408 19.0592 7.59199 19.1883 7.70133 19.2978C7.80407 19.401 7.92636 19.4827 8.06109 19.538C8.34617 19.6524 8.66437 19.6524 8.9494 19.538C9.08557 19.4836 9.20916 19.4019 9.3125 19.2978C9.41573 19.1934 9.49812 19.0703 9.5553 18.9351C9.61205 18.7948 9.63988 18.6445 9.6371 18.4932V0H17.0123V18.4932C17.0094 18.6455 17.0383 18.7967 17.0971 18.9373C16.5505 21.4605 15.2407 23.7544 13.3454 25.5075C13.3365 25.5016 13.3247 25.4927 13.3162 25.4871C13.088 25.6453 12.8535 25.7916 12.6129 25.9261C12.6045 25.9314 12.5957 25.9362 12.5867 25.9405C12.5748 25.9465 12.5604 25.9553 12.5426 25.9642C12.2225 26.1427 11.89 26.2982 11.5477 26.4295C9.48953 27.2249 7.20243 27.1873 5.17153 26.3246C3.14062 25.4619 1.52567 23.842 0.669235 21.8084C0.223906 20.7601 -0.00375911 19.6322 4.69447e-05 18.4932Z" fill="#7854F7"/>
<g style="mix-blend-mode:multiply" opacity="0.16">
<g style="mix-blend-mode:multiply" opacity="0.16">
<path d="M13.3428 25.5085C15.238 23.7554 16.5478 21.4615 17.0944 18.9383C17.1505 19.0726 17.2321 19.1948 17.3346 19.2981C17.4373 19.4013 17.5597 19.4829 17.6944 19.5383C17.9794 19.6526 18.2976 19.6526 18.5827 19.5383C18.7188 19.4838 18.8424 19.4021 18.9458 19.2981C19.0482 19.1948 19.1297 19.0726 19.1856 18.9383C19.243 18.7973 19.2718 18.6463 19.2704 18.4941C19.3039 20.0391 18.9825 21.5712 18.3311 22.9725C17.6797 24.3738 16.7155 25.6071 15.5128 26.5774C15.3722 26.5334 15.2319 26.4838 15.0942 26.4312C14.4758 26.1943 13.8878 25.8845 13.3428 25.5085Z" fill="black"/>
</g>
</g>
<g style="mix-blend-mode:multiply" opacity="0.25">
<g style="mix-blend-mode:multiply" opacity="0.25">
<path d="M19.2695 15.8941V0H25.7757C25.2342 0.037013 24.6927 0.0673617 24.1471 0.0906799C23.6015 0.113998 23.0645 0.149154 22.523 0.164699C21.9815 0.180245 21.437 0.208746 20.8944 0.21763L19.5305 0.254645C19.5539 1.49532 19.5676 2.73514 19.5716 3.97408C19.5771 4.6355 19.5716 5.29693 19.5686 5.96131C19.5656 6.62569 19.5656 7.28415 19.5508 7.94853L19.5138 9.9328C19.4964 10.5972 19.4846 11.2586 19.4583 11.92C19.4381 12.5845 19.4108 13.2469 19.3765 13.9073C19.3436 14.5687 19.3184 15.2331 19.2695 15.8941Z" fill="black"/>
</g>
</g>
<g style="mix-blend-mode:multiply" opacity="0.25">
<g style="mix-blend-mode:multiply" opacity="0.25">
<path d="M18.7656 26.9655C18.8915 26.9478 19.1461 26.9041 19.5033 26.8249C20.2147 26.6664 20.9038 26.4206 21.5549 26.0931C21.9847 25.8775 22.3966 25.628 22.7867 25.347C23.2191 25.0355 23.6218 24.6847 23.9896 24.2991C24.3822 23.8876 24.7322 23.4376 25.0345 22.9559C25.35 22.4602 25.6119 21.9324 25.8159 21.3814C26.0261 20.8357 26.175 20.2684 26.26 19.6899C26.3379 19.1207 26.375 18.5466 26.371 17.9721C26.3914 16.8306 26.4236 15.7624 26.4647 14.8464C26.5387 13.0172 26.6401 11.7969 26.6401 11.7969V18.4929C26.6452 19.632 26.4185 20.7602 25.9739 21.8089C25.1162 23.8489 23.4937 25.4718 21.4539 26.33C20.5999 26.6914 19.6911 26.9062 18.7656 26.9655Z" fill="black"/>
</g>
</g>
<rect x="26" width="77" height="5" fill="#7854F7"/>
</svg>
