<svg width="41" height="41" viewBox="0 0 41 41" fill="none" xmlns="http://www.w3.org/2000/svg">
<g clip-path="url(#clip0)">
<path d="M20.0915 13.4721C23.5801 13.4721 26.4183 10.6339 26.4183 7.1452C26.4183 3.65656 23.5801 0.818359 20.0915 0.818359C16.6029 0.818359 13.7646 3.65656 13.7646 7.1452C13.7646 10.6339 16.6029 13.4721 20.0915 13.4721ZM20.0915 2.10076C22.873 2.10076 25.1359 4.36368 25.1359 7.1452C25.1359 9.92672 22.873 12.1897 20.0915 12.1897C17.31 12.1897 15.047 9.92672 15.047 7.1452C15.047 4.36368 17.31 2.10076 20.0915 2.10076Z" fill="white"/>
<path d="M20.0911 16.0363C25.2046 16.0363 29.4032 20.028 29.7341 25.0592H14.9153C14.5612 25.0592 14.2741 25.3462 14.2741 25.7004C14.2741 26.0546 14.5612 26.3416 14.9153 26.3416H30.3964C30.7506 26.3416 31.0376 26.0546 31.0376 25.7004C31.0376 19.6645 26.1271 14.7539 20.0911 14.7539C14.0551 14.7539 9.14453 19.6645 9.14453 25.7004C9.14453 26.0546 9.43162 26.3416 9.78573 26.3416H12.3505C12.7046 26.3416 12.9917 26.0546 12.9917 25.7004C12.9917 25.3462 12.7046 25.0592 12.3505 25.0592H10.448C10.779 20.028 14.9776 16.0363 20.0911 16.0363V16.0363Z" fill="white"/>
<path d="M12.004 33.1117L8.48659 32.5214L6.8382 29.3586C6.72774 29.1466 6.50862 29.0137 6.26958 29.0137C6.03054 29.0137 5.81143 29.1466 5.70097 29.3586L4.05257 32.5214L0.535125 33.1117C0.29942 33.1513 0.105265 33.3186 0.0313987 33.5459C-0.0424674 33.7732 0.0162664 34.0227 0.183662 34.1932L2.68237 36.7383L2.15685 40.266C2.12162 40.5025 2.22079 40.7388 2.41418 40.8793C2.6074 41.0198 2.86293 41.041 3.07684 40.9345L6.2695 39.3446L9.46216 40.9345C9.55261 40.9795 9.6505 41.0017 9.74788 41.0017C9.88099 41.0017 10.0132 40.9603 10.1248 40.8792C10.3182 40.7387 10.4174 40.5024 10.3822 40.266L9.85662 36.7382L12.3553 34.1931C12.5227 34.0226 12.5815 33.7731 12.5076 33.5458C12.4339 33.3186 12.2397 33.1513 12.004 33.1117V33.1117ZM8.71794 36.0678C8.57713 36.2113 8.51164 36.4125 8.54131 36.6115L8.93261 39.2381L6.55547 38.0542C6.37551 37.9646 6.16383 37.9646 5.98378 38.0542L3.60655 39.2381L3.99786 36.6115C4.02752 36.4125 3.96212 36.2112 3.82123 36.0678L1.96072 34.1728L4.57972 33.7332C4.77807 33.6998 4.94931 33.5754 5.04224 33.3971L6.26958 31.0421L7.49692 33.3971C7.58986 33.5754 7.7611 33.6998 7.95944 33.7332L10.5784 34.1728L8.71794 36.0678V36.0678Z" fill="white"/>
<path d="M25.8253 33.1117L22.3079 32.5214L20.6595 29.3586C20.549 29.1466 20.3299 29.0137 20.0909 29.0137C19.8518 29.0137 19.6327 29.1466 19.5223 29.3586L17.8739 32.5214L14.3564 33.1117C14.1207 33.1513 13.9266 33.3186 13.8527 33.5459C13.7788 33.7732 13.8376 34.0227 14.005 34.1932L16.5037 36.7383L15.9782 40.266C15.943 40.5025 16.0422 40.7388 16.2356 40.8793C16.4288 41.0198 16.6843 41.041 16.8982 40.9345L20.0909 39.3446L23.2835 40.9345C23.374 40.9795 23.4719 41.0017 23.5693 41.0017C23.7024 41.0017 23.8346 40.9603 23.9462 40.8792C24.1396 40.7387 24.2387 40.5024 24.2035 40.266L23.6781 36.7382L26.1768 34.1931C26.3442 34.0226 26.4029 33.7731 26.3291 33.5458C26.2552 33.3186 26.061 33.1513 25.8253 33.1117V33.1117ZM22.5392 36.0678C22.3984 36.2113 22.3329 36.4125 22.3626 36.6115L22.7538 39.2381L20.3767 38.0542C20.2867 38.0094 20.1888 37.987 20.0909 37.987C19.993 37.987 19.895 38.0094 19.8051 38.0542L17.4279 39.2381L17.8191 36.6115C17.8488 36.4125 17.7834 36.2112 17.6425 36.0678L15.782 34.1728L18.401 33.7332C18.5994 33.6998 18.7706 33.5754 18.8635 33.3971L20.0909 31.0422L21.3182 33.3972C21.4111 33.5755 21.5824 33.6999 21.7807 33.7332L24.3997 34.1728L22.5392 36.0678V36.0678Z" fill="white"/>
<path d="M40.1503 33.5459C40.0765 33.3186 39.8824 33.1513 39.6466 33.1117L36.1292 32.5214L34.4808 29.3586C34.3703 29.1466 34.1512 29.0137 33.9122 29.0137C33.6731 29.0137 33.454 29.1466 33.3435 29.3586L31.6951 32.5214L28.1777 33.1117C27.942 33.1513 27.7478 33.3186 27.674 33.5459C27.6001 33.7732 27.6588 34.0227 27.8262 34.1932L30.3249 36.7383L29.7994 40.266C29.7642 40.5025 29.8634 40.7388 30.0568 40.8793C30.25 41.0198 30.5055 41.041 30.7194 40.9345L33.9121 39.3446L37.1047 40.9345C37.1952 40.9795 37.2931 41.0017 37.3904 41.0017C37.5236 41.0017 37.6558 40.9603 37.7674 40.8792C37.9608 40.7387 38.0599 40.5024 38.0247 40.266L37.4992 36.7382L39.9979 34.1931C40.1655 34.0227 40.2242 33.7732 40.1503 33.5459V33.5459ZM36.3606 36.0678C36.2198 36.2113 36.1543 36.4125 36.184 36.6115L36.5753 39.2381L34.198 38.0542C34.108 38.0094 34.0101 37.987 33.9122 37.987C33.8143 37.987 33.7164 38.0094 33.6264 38.0542L31.2493 39.2381L31.6406 36.6115C31.6703 36.4125 31.6049 36.2112 31.464 36.0678L29.6035 34.1728L32.2225 33.7332C32.4208 33.6998 32.5921 33.5754 32.685 33.3971L33.9123 31.0421L35.1397 33.3971C35.2326 33.5754 35.4038 33.6998 35.6022 33.7332L38.2212 34.1728L36.3606 36.0678V36.0678Z" fill="white"/>
<path d="M20.0913 10.0523C20.9318 10.0523 21.7314 9.68706 22.2851 9.05022C22.5174 8.78297 22.4892 8.37799 22.2219 8.14562C21.9546 7.91325 21.5496 7.94155 21.3173 8.2088C21.0074 8.56539 20.5604 8.76989 20.0913 8.76989C19.6222 8.76989 19.1754 8.56539 18.8654 8.2088C18.633 7.94155 18.228 7.91333 17.9608 8.14562C17.6935 8.37799 17.6652 8.78297 17.8976 9.05022C18.4512 9.68697 19.2508 10.0523 20.0913 10.0523V10.0523Z" fill="white"/>
</g>
<defs>
<clipPath id="clip0">
<rect width="40.1818" height="40.1818" fill="white" transform="translate(0 0.818359)"/>
</clipPath>
</defs>
</svg>
