<svg width="15" height="15" viewBox="0 0 15 15" fill="none" xmlns="http://www.w3.org/2000/svg">
<g clip-path="url(#clip0)">
<path d="M12.9715 12.7739C14.002 11.7434 14.6743 10.4904 14.9886 9.16948C15.0786 8.79112 14.6136 8.53568 14.3393 8.81136C14.3359 8.81477 14.3326 8.81813 14.3292 8.8215C12.0363 11.1144 8.29128 11.0702 6.05437 8.68889C3.94547 6.44383 3.97316 2.95843 6.11472 0.744516C6.14172 0.716605 6.16893 0.689022 6.19636 0.661767C6.47144 0.388482 6.21434 -0.074401 5.83709 0.0152482C4.52794 0.326367 3.28535 0.989051 2.25983 2.00365C-0.738626 4.9702 -0.755514 9.77989 2.22295 12.7665C5.18839 15.74 10.0029 15.7425 12.9715 12.7739Z" fill="white"/>
</g>
<defs>
<clipPath id="clip0">
<rect width="15" height="15" fill="white"/>
</clipPath>
</defs>
</svg>
