<svg width="30" height="42" viewBox="0 0 30 42" fill="none" xmlns="http://www.w3.org/2000/svg">
<path d="M28.9284 10.3386L19.4254 0.835541C19.3624 0.772504 19.2876 0.722501 19.2052 0.688387C19.1228 0.654272 19.0346 0.636716 18.9454 0.636719H3.33332C2.61346 0.637527 1.92332 0.923847 1.41431 1.43286C0.905292 1.94188 0.618973 2.63202 0.618164 3.35187V38.6488C0.618973 39.3687 0.905292 40.0588 1.41431 40.5678C1.92332 41.0769 2.61346 41.3632 3.33332 41.364H26.4121C27.132 41.3632 27.8221 41.0769 28.3311 40.5678C28.8401 40.0588 29.1264 39.3687 29.1273 38.6488V10.8185C29.1273 10.7294 29.1097 10.6411 29.0756 10.5588C29.0415 10.4764 28.9915 10.4016 28.9284 10.3386V10.3386ZM19.6242 2.95423L26.8097 10.1397H20.9818C20.6219 10.1393 20.2768 9.99618 20.0223 9.74167C19.7678 9.48716 19.6246 9.1421 19.6242 8.78217V2.95423ZM26.4121 40.0064H3.33332C2.97339 40.006 2.62832 39.8628 2.37382 39.6083C2.11931 39.3538 1.97615 39.0088 1.97574 38.6488V3.35187C1.97615 2.99195 2.11931 2.64688 2.37382 2.39237C2.62832 2.13787 2.97339 1.99471 3.33332 1.99429H18.2666V8.78217C18.2675 9.50203 18.5538 10.1922 19.0628 10.7012C19.5718 11.2102 20.2619 11.4965 20.9818 11.4973H27.7697V38.6488C27.7693 39.0088 27.6261 39.3538 27.3716 39.6083C27.1171 39.8628 26.772 40.006 26.4121 40.0064V40.0064Z" fill="white"/>
<path d="M19.6238 25.0742C18.2813 25.0742 16.9689 25.4723 15.8527 26.2182C14.7364 26.964 13.8664 28.0242 13.3526 29.2645C12.8389 30.5048 12.7045 31.8696 12.9664 33.1863C13.2283 34.5031 13.8748 35.7125 14.8241 36.6618C15.7734 37.6111 16.9828 38.2576 18.2996 38.5195C19.6163 38.7814 20.9811 38.647 22.2214 38.1333C23.4617 37.6195 24.5219 36.7495 25.2677 35.6332C26.0136 34.517 26.4117 33.2046 26.4117 31.8621C26.4097 30.0625 25.6939 28.3371 24.4213 27.0646C23.1488 25.792 21.4234 25.0762 19.6238 25.0742ZM19.6238 37.2924C18.5498 37.2924 17.4999 36.9739 16.6069 36.3772C15.7139 35.7805 15.0179 34.9324 14.6069 33.9402C14.1959 32.9479 14.0883 31.8561 14.2979 30.8027C14.5074 29.7493 15.0246 28.7817 15.784 28.0223C16.5435 27.2629 17.511 26.7457 18.5644 26.5361C19.6178 26.3266 20.7096 26.4341 21.7019 26.8451C22.6942 27.2562 23.5423 27.9522 24.1389 28.8452C24.7356 29.7382 25.0541 30.7881 25.0541 31.8621C25.0525 33.3018 24.4798 34.6821 23.4618 35.7001C22.4438 36.7181 21.0635 37.2908 19.6238 37.2924Z" fill="white"/>
<path d="M22.7158 28.5808C22.6417 28.5314 22.5585 28.497 22.4711 28.4797C22.3836 28.4624 22.2936 28.4625 22.2062 28.48C22.1188 28.4975 22.0357 28.532 21.9616 28.5816C21.8876 28.6312 21.824 28.6949 21.7746 28.7691L18.1611 34.1892L16.7102 32.7383C16.5829 32.6112 16.4103 32.5398 16.2303 32.5398C16.0504 32.5399 15.8778 32.6114 15.7506 32.7386C15.6233 32.8659 15.5518 33.0385 15.5518 33.2184C15.5517 33.3983 15.6231 33.571 15.7503 33.6983L17.7866 35.7346C17.8497 35.7977 17.9245 35.8477 18.0068 35.8818C18.0892 35.9159 18.1774 35.9335 18.2666 35.9335C18.2888 35.9335 18.3111 35.9324 18.3335 35.9301C18.4334 35.9203 18.5299 35.8883 18.616 35.8366C18.7021 35.7849 18.7757 35.7148 18.8314 35.6312L22.9041 29.5221C22.9536 29.4479 22.9879 29.3648 23.0052 29.2773C23.0225 29.1899 23.0224 29.0999 23.0049 29.0125C22.9875 28.9251 22.9529 28.8419 22.9033 28.7679C22.8537 28.6938 22.79 28.6302 22.7158 28.5808Z" fill="white"/>
<path d="M3.33301 6.74609H6.04816V8.10367H3.33301V6.74609Z" fill="white"/>
<path d="M7.40625 6.74609H10.1214V8.10367H7.40625V6.74609Z" fill="white"/>
<path d="M3.33301 9.46094H7.40574V10.8185H3.33301V9.46094Z" fill="white"/>
<path d="M8.76367 9.46094H10.1213V10.8185H8.76367V9.46094Z" fill="white"/>
<path d="M11.4785 14.8906H15.5512V16.2482H11.4785V14.8906Z" fill="white"/>
<path d="M7.40625 14.8906H10.1214V16.2482H7.40625V14.8906Z" fill="white"/>
<path d="M16.9092 14.8906H23.0183V16.2482H16.9092V14.8906Z" fill="white"/>
<path d="M24.376 14.8906H25.7336V16.2482H24.376V14.8906Z" fill="white"/>
<path d="M8.76367 17.6074H17.5879V18.965H8.76367V17.6074Z" fill="white"/>
<path d="M3.33301 17.6074H7.40574V18.965H3.33301V17.6074Z" fill="white"/>
<path d="M18.9453 17.6074H21.6605V18.965H18.9453V17.6074Z" fill="white"/>
<path d="M23.0186 17.6074H25.7337V18.965H23.0186V17.6074Z" fill="white"/>
<path d="M7.40625 20.3203H12.8366V21.6779H7.40625V20.3203Z" fill="white"/>
<path d="M3.33301 20.3203H6.04816V21.6779H3.33301V20.3203Z" fill="white"/>
<path d="M14.1943 20.3203H23.0186V21.6779H14.1943V20.3203Z" fill="white"/>
<path d="M24.376 20.3203H25.7336V21.6779H24.376V20.3203Z" fill="white"/>
<path d="M8.76367 23.0352H14.194V24.3927H8.76367V23.0352Z" fill="white"/>
<path d="M3.33301 23.0352H7.40574V24.3927H3.33301V23.0352Z" fill="white"/>
<path d="M15.5518 23.0352H20.3033V24.3927H15.5518V23.0352Z" fill="white"/>
<path d="M21.6602 23.0352H25.7329V24.3927H21.6602V23.0352Z" fill="white"/>
<path d="M3.33301 25.752H10.1209V27.1095H3.33301V25.752Z" fill="white"/>
</svg>
