<svg width="15" height="17" viewBox="0 0 15 17" fill="none" xmlns="http://www.w3.org/2000/svg">
<path fill-rule="evenodd" clip-rule="evenodd" d="M0.366365 15.9C0.131782 15.6654 0 15.3472 0 15.0154C0 14.6836 0.131782 14.3654 0.366365 14.1307L6.62288 7.87419C6.85754 7.6396 7.17575 7.50782 7.50755 7.50782C7.83936 7.50782 8.15757 7.6396 8.39223 7.87419L14.6487 14.1307C14.8767 14.3667 15.0028 14.6828 15 15.0109C14.9971 15.339 14.8655 15.6528 14.6335 15.8848C14.4015 16.1168 14.0877 16.2484 13.7596 16.2513C13.4315 16.2541 13.1154 16.128 12.8794 15.9L7.50755 10.5282L2.13571 15.9C1.90105 16.1346 1.58284 16.2664 1.25104 16.2664C0.919235 16.2664 0.601019 16.1346 0.366365 15.9V15.9ZM0.366365 8.39223C0.131782 8.15757 0 7.83935 0 7.50755C0 7.17575 0.131782 6.85754 0.366365 6.62288L6.62288 0.366365C6.85754 0.131781 7.17575 0 7.50755 0C7.83936 0 8.15757 0.131781 8.39223 0.366365L14.6487 6.62288C14.8767 6.85888 15.0028 7.17496 15 7.50305C14.9971 7.83114 14.8655 8.14498 14.6335 8.37698C14.4015 8.60898 14.0877 8.74058 13.7596 8.74343C13.4315 8.74628 13.1154 8.62016 12.8794 8.39223L7.50755 3.02038L2.13571 8.39223C1.90105 8.62681 1.58284 8.75859 1.25104 8.75859C0.919235 8.75859 0.601019 8.62681 0.366365 8.39223V8.39223Z" fill="white"/>
</svg>
